<?xml version="1.0" encoding="UTF-8"?>
<svg version="1.1" viewBox="0 0 2048 1770" width="133" height="115" xmlns="http://www.w3.org/2000/svg">
<path transform="translate(1008,253)" d="m0 0h41l49 3 35 4 39 7 27 7 43 14 26 11 29 14 19 9 23 13 14 8 15 10 18 13 16 12 16 13 13 11 15 13 16 15 17 17 7 8 9 11 11 13 12 16 24 34 13 21 9 15 11 21 15 33 11 27 12 34 10 35 6 26 6 36 4 35 2 39v24l-2 43-4 31-8 44-10 38-11 33-11 28-12 27-12 25-14 27-14 23-11 16-13 17-12 15-11 14-11 13-11 12-4 5h-2l-2 4-4 4h-2l-2 4-7 7-8 7-12 11-11 9-14 11-13 10-16 11-15 10-21 13-15 9-29 15-26 12-25 9-36 12-31 9-32 7-44 7-36 4-15 1h-57l-44-4-37-6-33-7-25-7-44-15-31-12-29-14-29-16-24-15-11-8-25-17-14-11-13-11-14-12-7-7-8-7-33-33-9-11-11-13-12-16-14-19-15-22-13-21-14-25-9-17-16-39-11-29-9-29-11-42-6-33-5-42-2-35v-28l2-36 4-36 5-30 7-30 8-28 12-37 14-34 11-25 12-24 10-16 7-11 24-36 11-16 14-18 13-15 14-15 28-28 8-7 11-10 11-9 13-10 16-12 14-10 17-12 21-12 23-12 16-8 17-9 36-15 40-13 31-8 33-6 38-5 28-2z" fill="#FDFDFD"/>
<path transform="translate(1008,253)" d="m0 0h41l49 3 35 4 39 7 27 7 43 14 26 11 29 14 19 9 23 13 14 8 15 10 18 13 16 12 16 13 13 11 15 13 16 15 17 17 7 8 9 11 11 13 12 16 24 34 13 21 9 15 11 21 15 33 11 27 12 34 10 35 6 26 6 36 4 35 2 39v24l-2 43-4 31-8 44-10 38-11 33-11 28-12 27-12 25-14 27-14 23-11 16-13 17-12 15-11 14-11 13-11 12-4 5h-2l-2 4-4 4h-2l-2 4-7 7-8 7-12 11-11 9-14 11-13 10-16 11-15 10-21 13-15 9-29 15-26 12-25 9-36 12-31 9-32 7-44 7-36 4-15 1h-57l-44-4-37-6-33-7-25-7-44-15-31-12-29-14-29-16-24-15-11-8-25-17-14-11-13-11-14-12-7-7-8-7-33-33-9-11-11-13-12-16-14-19-15-22-13-21-14-25-9-17-16-39-11-29-9-29-11-42-6-33-5-42-2-35v-28l2-36 4-36 5-30 7-30 8-28 12-37 14-34 11-25 12-24 10-16 7-11 24-36 11-16 14-18 13-15 14-15 28-28 8-7 11-10 11-9 13-10 16-12 14-10 17-12 21-12 23-12 16-8 17-9 36-15 40-13 31-8 33-6 38-5 28-2zm-4 81-33 2-33 4-25 5-17 4-32 9-19 7-33 13-21 10-16 8-19 12-28 18-16 12-13 10-11 10-11 9-15 14-5 5-10 9-7 8-10 11-8 10-11 14-14 19-12 17-13 21-12 22-8 16-12 26-14 38-9 31-6 27-6 37-4 40-1 18v35l2 28 5 34 6 29 11 41 11 32 11 28 9 20 13 25 13 21 16 23 12 16 10 13 14 17 15 16 12 13 12 12 8 7 14 12 17 13 19 14 17 11 11 7 16 10 10 6 15 7 19 9 16 6 26 9 20 6 35 9 15 3 25 4 13 2 24 2 19 1h35l35-2 31-4 31-6 30-8 28-9 34-12 28-13 20-10 27-16 12-8 20-14 13-10 14-11 14-12 12-11 21-21 9-11 7-7 7-9 13-16 14-19 18-27 9-16 16-32 15-36 15-44 7-28 5-26 4-29 2-24 1-20v-43l-3-42-5-32-7-31-10-34-8-22-12-29-14-30-14-25-11-17-10-15-9-12-13-16-9-11-11-13-12-13-21-21-11-9-10-9-11-9-15-12-18-13-18-11-24-15-20-10-12-7-17-7-19-8-35-12-34-8-36-6-29-3-22-1z" fill="#FDFDFD"/>
<path transform="translate(849,603)" d="m0 0h151l1 12v11l-1 2-16 3-15 2-13 6-10 6-6 5-4 7-1 5-1 185 5-3 2-1 1 3 6-2 17-14 12-11 50-50 8-7 12-12 9-11 10-13 7-8 11-13 7-8 9-15 5-8 8-21 2-11-6-5-8-3-18-3-16-2-3-1-4-14v-8l1-2 6-1h178l7 2 5 5 1 8-5 6-5 3-33 5-19 9-14 10-13 12-5 6-8 7-12 14-7 8-6 9h-2l-2 4-12 14-22 22-7 8-9 10-7 8-35 35-7 8-9 12-1 4 1 1 2-2 4 10 9 10 16 16 13 17 11 13 9 11 12 14 11 13 8 12 13 16 11 14 12 14 8 10 22 26 12 16 17 17 19 12 13 7 8 2 8 5 9-1 11 5 4 4 1 2v13l-5 4-4 2-125 1-5-3-9-10-13-18-11-16-14-19-12-17-11-14-21-28-9-10-14-19-11-13-11-12-7-8-12-13-9-10-7-8-12-13-9-11-8-9 2 4h-3l-7-2v185l2 10 6 9 6 5 19 7 12 3h13l5 5 2 5v9l-2 6-1 4-10 2-127-1-53-1-11-2-4-4-2-7v-10l4-4 5-1 28-2 16-8 6-4 3-9 1-10v-237l-1-160-3-6-13-9-14-7-19-7-10-5-5-6 1-9 2-3 6-1z" fill="#040303"/>
<path transform="translate(999,312)" d="m0 0h55l38 3 34 5 24 4 32 8 19 5 25 9 26 11 3 3 13 5 22 12 16 8 17 11 18 11 12 9 14 11 22 18 16 14 8 8 8 7 17 17 7 8 13 15 13 16 13 18 11 17 14 24 13 24 16 32 12 31 12 37 6 25 5 30 4 33 2 29v61l-2 28-4 34-4 22-7 30-8 28-10 28-9 22-8 16-11 23-11 20-11 18-15 22-9 12-11 13-9 11-9 10-7 8-15 16-16 15-11 9-17 14-16 12-11 9-14 10-26 16-22 12-29 14-35 14-20 7-43 13-25 5-25 4-30 4-19 2h-59l-24-2-33-4-24-4-40-10-17-5-43-15-37-16-20-10-15-9-15-10-16-10-39-30-17-14-13-12-9-9-8-7-7-8-10-11-9-11-12-15-13-17-16-23-14-24-12-23-8-16-9-19-14-36-8-25-9-34-7-38-4-30-1-11-1-24v-23l1-29 3-34 5-35 5-24 6-22 13-41 12-28 9-20 14-27 5-9 8-14 18-27 13-18 18-22 8-9 8-10 8-8 7-8 12-11 15-14 10-8 14-12 13-10 22-15 13-8 22-13 18-10 35-16 23-9 30-10 32-9 28-6 43-6zm5 22-33 2-33 4-25 5-17 4-32 9-19 7-33 13-21 10-16 8-19 12-28 18-16 12-13 10-11 10-11 9-15 14-5 5-10 9-7 8-10 11-8 10-11 14-14 19-12 17-13 21-12 22-8 16-12 26-14 38-9 31-6 27-6 37-4 40-1 18v35l2 28 5 34 6 29 11 41 11 32 11 28 9 20 13 25 13 21 16 23 12 16 10 13 14 17 15 16 12 13 12 12 8 7 14 12 17 13 19 14 17 11 11 7 16 10 10 6 15 7 19 9 16 6 26 9 20 6 35 9 15 3 25 4 13 2 24 2 19 1h35l35-2 31-4 31-6 30-8 28-9 34-12 28-13 20-10 27-16 12-8 20-14 13-10 14-11 14-12 12-11 21-21 9-11 7-7 7-9 13-16 14-19 18-27 9-16 16-32 15-36 15-44 7-28 5-26 4-29 2-24 1-20v-43l-3-42-5-32-7-31-10-34-8-22-12-29-14-30-14-25-11-17-10-15-9-12-13-16-9-11-11-13-12-13-21-21-11-9-10-9-11-9-15-12-18-13-18-11-24-15-20-10-12-7-17-7-19-8-35-12-34-8-36-6-29-3-22-1z" fill="#252225"/>
<path transform="translate(849,603)" d="m0 0h151l1 12v11l-1 2-16 3-15 2-13 6-10 6-8 6-1 2h-2l-1 4-4 7-1 5-3 81 1 108h2l2-5 1 3v8l-3 7v12l-1 8-3 43v68l-1 15 1 6-1 5 2 22 1 1v5l2 1 3 5 6 5 7 8 20 7 15 4h13l5 5 2 5v9l-2 6-1 4-10 2-127-1-53-1-11-2-4-4-2-7v-10l4-4 5-1 28-2 16-8 6-4 3-9 1-10v-237l-1-160-3-6-13-9-14-7-19-7-10-5-5-6 1-9 2-3 6-1z" fill="#040303"/>
<path transform="translate(559,1148)" d="m0 0 6 2 4 5 2 4 5 5 9 11 7 6 4 2 1-3 4-1 6 5 5 6 2 1 4 7 5 6v2l4 2 10 10v3l4 2v2l4 1v2l4 2v2l5 2 18 18 8 7 14 12 10 8-1 4h3l1 3 4 1 7 8 3 4 6 2 8 7 12 8 11 6 14 8 20 9 26 13 17 6 9 4 19 6 25 7 14 4 22 5 20 3 26 4 22 2 25 1h27l33-2 41-7 32-6 20-6 18-6 15-4 8-3 5-2h7l1-3 2 1 1-2h8l-2 4-11 7-5 2-1 3 5-1v2h2v4l-7 2v-2l-7 1-1 3-7 1-3 3-21 5-5 2-13 3-16 4-19 4-25 3-38 2-16 2h-27l-8-1h-24l-40-4-27-4-40-10-19-5-30-10-10-2-37-16-20-10-15-9-15-10-16-10-39-30-17-14-13-12-9-9-8-7-7-8-10-11-9-11-12-15-13-17-16-23-5-9z" fill="#040303"/>
<path transform="translate(991,317)" d="m0 0h67l41 4 10 1 23 3 19 4 13 4 22 5 27 9 16 6 13 5 14 7 17 8 19 11 15 9 7 5 7 4 6 4v2l6 2 6 4v3l-7-2-11-7-14-9-10-6-4-3-10-4-3-3-8-3-5-4-6-3-10-3-4-3-10-3-5-2 1 2 15 7 10 4 13 7 5 2 10 5 8 5 7 7-1 2-5-2-7-3v-2l-6-2-6-4-1-2-7-1-16-8-23-10-27-11-32-10-14-4-20-4-12-2-9-4 3-2-13-5-12-3-11-2h-16l-9-1h-12l-11-3v2h-26l-8 3-2-1-18 2-15 3-10 1-8 1-5 1-1 2v-2h-2v2l-5 2-1 4-4 2-23 4-10 2-4 1-11 2-5 2-10 1v2l-13 2-5 3-7 1-4 3-13 4h-5v2l-9 3-7 2-8 2-6-2h-5l1-3 17-9 13-5 5-3 21-7 21-8 37-10 29-6 26-3 31-2z" fill="#040303"/>
<path transform="translate(938,650)" d="m0 0 1 2-3 5-1 5-1 185 5-3 2-1 1 3 2 2-7 2 7 13v3h-1l2 4-10-3v185l2 10 6 9 4 5-4-2-5-5v-2l-3-1-7-8-3-8-2-23 1-8-1-5 1-21v-59l3-46 1-5v-13l3-6v-10l-1 5-4-1-1-109 3-80 3-9 4-7h2z" fill="#262326"/>
<path transform="translate(1488,1127)" d="m0 0h4l1 3-2 3-2 7-8 16-2 2-3 8-4 4h-3v2l-4 4-2 5h-2l-1 4-13 13-6 10-12 12-1 2h-2l-2 4-7 6-2 3v3l3-1v3h-2l-2 5-3 2h-4l-1 5-7 8-4 3h-2l-2 4-8 6-13 12-9 5-4 4h-2v2l-8 7h-2v2l-13 10-25 15-4 1-1-4h2l1-2h2l-1-4 1-2-4 1 1-3 3-1 3-6 12-8 20-14 13-10 14-11 14-12 12-11 20-20 9-11 7-7 7-9 13-16 14-19 18-27z" fill="#060505"/>
<path transform="translate(1017,308)" d="m0 0h57l22 1 30 5 23 5 14 4 16 4 33 10 31 12 21 9 22 12 21 12 19 12 14 9 16 11 12 9 9 7 15 13 8 7 10 9 7 7 8 7 14 14 9 11 11 13 14 19 9 13-1 2-13-17-11-14-9-10-7-8-12-13-14-14-8-7-8-8-9-7-8-7-30-24-17-12-17-10-14-9-16-8-20-11-15-6-1-3-5-1-24-10-22-8-26-7-30-7-32-5-21-3-38-3h-55l-31 3-43 6-28 6-45 13-17 6-27 11-37 17-8 5-2-1 11-7 12-6 17-8 12-5 23-10 26-8 34-10 43-9 13-3 18-3 9-1z" fill="#DFDCDB"/>
<path transform="translate(1e3 334)" d="m0 0h54l33 2 31 4 28 5 32 8 35 12 30 13 14 7 19 10 18 11 20 12 4 4-5-2-32-18-24-12-20-8-25-8-16-7-30-9-16-5-9-2-26-7-24-3-20-1h-100l-28 2-21 4-26 7-21 6-55 20-21 9-19 9-28 14-24 15-10 7-2-1 15-11 12-7 17-11 18-11 28-13 20-8 28-11 19-6 31-8 25-5 28-4 21-2z" fill="#DFDCDB"/>
<path transform="translate(1090,321)" d="m0 0h9l10 1 23 3 19 4 13 4 22 5 27 9 16 6 13 5 14 7 17 8 19 11 15 9 7 5 7 4 6 4v2l6 2 6 4v3l-7-2-11-7-14-9-10-6-4-3-10-4-3-3-8-3-5-4-6-3-10-3-4-3-10-3-5-2 1 2 15 7 10 4 13 7 5 2 10 5 8 5 7 7-1 2-5-2-7-3v-2l-6-2-6-4-1-2-7-1-16-8-23-10-27-11-32-10-14-4-20-4-12-2-9-4 3-2-13-5-12-3-3-1z" fill="#040303"/>
<path transform="translate(704,1280)" d="m0 0 4 2 18 13 21 14 11 7 16 10 10 6 15 7 19 9 16 6 26 9 20 6 35 9 15 3 25 4 13 2 24 2 19 1h35l35-2 31-4 31-6 30-8 28-9 23-8 3 1-1 2h-2l-1 2-7 1-8 3-16 5-20 6-11 4-21 5-22 4-41 7-33 2h-27l-25-1-22-2-30-5-20-3-30-7-16-5-25-7-13-5-11-5-8-3-18-8-32-16-17-10-9-5-8-6-7-6-6-2-9-10v-2l-5-1v-3h-3z" fill="#262326"/>
<path transform="translate(820,1372)" d="m0 0 9 2 40 14 42 11 19 4 38 5 18 2 15 1h59l35-4 34-5 26-5 31-9 25-8 11-4 3 1-33 13-24 8-14 4-16 4-19 5-19 3-38 3h-54l-22-1-35-4-22-4-30-7-15-3-21-8-11-5-17-6-15-6z" fill="#DFDCDB"/>
<path transform="translate(813,1086)" d="m0 0h14v2l-26 1-2 6h3l1 5-2 2-4 1v3l3 2h138l32 1 11 1h14l2-4 2-10h1v9l-2 6-1 4-10 2-127-1-53-1-11-2-4-4-2-7v-10l4-4 5-1z" fill="#262326"/>
<path transform="translate(1208,1060)" d="m0 0 9 5 13 8 11 6 8 2 8 5 9-1 11 5 4 4 1 2v13l-5 4-4 2-125 1-5-3-1-2 7-1 4-1 26-1 27-1h14l6-2 9-1 8 1h8l6 3 16-1 3 1 3-2-2-3v-3h-3l-1-2h-9l-3-2v-2l-5 1-3-1-1-2-3-1v-2l-3 1-3-1v-2h-7l-10-4-1-6v-3l-6-4-9-3v-3l-2-1z" fill="#262326"/>
<path transform="translate(757,1315)" d="m0 0 5 2 23 12 19 10 19 8 17 6 39 11 35 9 25 5 30 5 17 1 43 1h47l35-3 25-5 28-7 21-5 4 1-30 9-30 7-38 6-22 2-23 1h-35l-30-2-19-2-26-4-17-3-20-5-30-8-20-7-25-9-12-5-15-7-19-9-21-14z" fill="#DFDCDB"/>
<path transform="translate(826,1373)" d="m0 0 7 1 37 12 32 8 22 5 30 4 32 3h25l10 1h24l16-2 38-2 31-4 13-3 16-4 17-4 7-2 17-5v-2h8l1-4h7 4 2v2l-20 7-43 13-25 5-25 4-30 4-19 2h-59l-24-2-33-4-24-4-40-10-17-5-37-13z" fill="#262326"/>
<path transform="translate(853,657)" d="m0 0 2 2 2 13h1l1 21-1 30-1 14v293l-1 21-2 14-2 4 1-15z" fill="#262326"/>
<path transform="translate(1108,666)" d="m0 0 1 4-1 5 3 1-1 8-2 3h-6v2h-2l1 11-5-1 2 3 2-1-2 4-5 1v2h-4v-3h-2l-2 4-1 7-5 6-2 4h-2v2l-5 5h-2l-3 9h-2l-2 5-5 6h-2v2l-8 7-11 11-8 7-13 12-9 9v-3l4-5-4 3h-2l-2 4-5 5-6 4-3 4-2 2-1 3-4 2v2l-7 2 6-7 48-48 8-7 12-12 9-11 10-13 7-8 11-13 7-8 9-15 5-8z" fill="#252225"/>
<path transform="translate(851,654)" d="m0 0 2 3 1 160v237l-2 15-2 2v-92l1-242z" fill="#DFDCDB"/>
<path transform="translate(789,1092)" d="m0 0h1l2 14 3 5 4 2 8 1 53 1 128 1 9-1 1-8 2-2v12l-3 2-8 1-58 1h-79l-42-1-11-1-6-4-3-6-2-11z" fill="#DFDCDB"/>
<path transform="translate(1069,895)" d="m0 0 4 1 12 14 9 11 12 14 8 12 13 16 11 14 12 14 8 10 22 26 12 16 16 16-2 1-6-5-7-8-5-4-11-14-5-5-5-6-10-10v-2l-4-2-4-3v-2l-4-2-7-8-2-5-1-3h-2l-5-9-10-14-7-8-4-5-2-1v-2h-2l-4-8-8-8-6-8-9-10-8-11z" fill="#252225"/>
<path transform="translate(527,630)" d="m0 0 1 2-14 33-6 16-13 42-7 30-5 32-3 28-1 15-1 29v23l1 24 4 34 6 35 6 26-1 4-6-24-5-26-5-35-2-28v-41l1-27 4-40 5-32 7-32 8-26 7-20 9-20 9-21z" fill="#DFDCDB"/>
<path transform="translate(935,867)" d="m0 0 7 1 1 2-6-1v182l2 11 5 8-1 2-6-8-2-4-1-8v-183z" fill="#DFDCDB"/>
<path transform="translate(1145,1115)" d="m0 0h128l-4 2-60 3h-54l-9-3z" fill="#DFDCDB"/>
<path transform="translate(1398,1241)" d="m0 0 1 4-4 1-1 4-7 7-4 3h-2l-2 4h-2l-2 3-6 2-3 6 10-8 5-3-2 6-8 7-2 2-3 1-1 2h-2l-2 4-5 4-1 2-14 5-2-1h-4l1-4 14-10 15-12 11-9 14-12z" fill="#242124"/>
<path transform="translate(1067,603)" d="m0 0h178l7 2v2h-3l1 2-7 2-4-3-33-1-26-2h-69l-7 1h-36l-7-1v-1z" fill="#262326"/>
<path transform="translate(687,432)" d="m0 0h2v3h3l-2 5-2 3h-4l-1 3-5 2-3 4-4 4h-2l-1 3-3 1-2 3h-2l-2 4h-2l-1 4h-2v2l-8 6h-2l-3 3h-5l1-4 6-4h2v-3l4-1v-3l2-1 2-4 4-4h2l1-3 6-6 1-2 5-1 4-5 2-2 5-3z" fill="#040303"/>
<path transform="translate(935,657)" d="m0 0h1v143l-1 36 5 1 2 5-1 4-1-2-3 3h-3v-185z" fill="#DFDCDB"/>
<path transform="translate(1118,719)" d="m0 0v3l-25 25-7 8-9 10-5 5-1-3 3-7 2-6 5-4 1-3 2-1 1-3 6-6 1 2h2v-3h3l1-4h4l1-3 5-2 6-4z" fill="#252225"/>
<path transform="translate(849,603)" d="m0 0h151l-1 4-7-1h-8-3-11v-2h-121z" fill="#262326"/>
<path transform="translate(876,333)" d="m0 0m-4 1h4v2l-19 6-33 12-4-1 5-3 14-5 20-7z" fill="#262326"/>
<path transform="translate(1067,603)" d="m0 0h45l-1 2-7 1h-36l-7-1v-1z" fill="#252225"/>
<path transform="translate(490,962)" d="m0 0h2l2 10 4 7 1 13-2 3-3-2-1-7 1-2-2-1 1-2h-2v-6l-1-3z" fill="#040303"/>
<path transform="translate(1106,935)" d="m0 0 5 5 11 13 10 12 6 9 7 9-1 2-9-10-9-12-10-12-7-10-3-4z" fill="#DFDCDB"/>
<path transform="translate(1398,1241)" d="m0 0 1 4-4 1-1 4-7 7-4 3h-2l-2 4h-2l-2 3-6 2-1 3-5 2 2-4 11-9 14-12z" fill="#252225"/>
<path transform="translate(1017,828)" d="m0 0 1 4 1 1 2-2 4 10 9 10 3 4-4-2-15-14-3-1v-7z" fill="#262326"/>
<path transform="translate(999,797)" d="m0 0 2 1-2 5-6 4-6 5-1 3-2 1v2l-4 2v2l-7 2 6-7z" fill="#191719"/>
<path transform="translate(669,474)" d="m0 0 2 1-35 35v-3l10-10 7-8 5-4 5-5z" fill="#E7E4E4"/>
<path transform="translate(1099,682)" d="m0 0v3l-9 15-9 9-8 10-2 1 2-4 11-14 5-6 7-10z" fill="#DFDCDB"/>
<path transform="translate(542,1117)" d="m0 0 2 1 3 6 2 1 1 5 1 2 4 2-1 3 3 4-1 3-4-4-10-19z" fill="#111011"/>
<path transform="translate(1202,350)" d="m0 0 5 1v2l8 1 16 6v3l-5-1-19-7-6-3z" fill="#262326"/>
<path transform="translate(635,1214)" d="m0 0 17 17-1 2-6-5v-2l-4-1-4-4v-3l-3-1z" fill="#262326"/>
<path transform="translate(480,864)" d="m0 0 2 2 1 14v11l-2 1-1-5z" fill="#040303"/>
<path transform="translate(1026,842)" d="m0 0 4 2v2h2v-2l4 2 2 9-7-6-5-5z" fill="#DFDCDB"/>
<path transform="translate(797,1361)" d="m0 0h5l10 5 14 6-3 1-24-10z" fill="#262326"/>
<path transform="translate(941,864)" d="m0 0 4 2 8 9-1 2-9-6v-3z" fill="#DAD7D6"/>
<path transform="translate(1233,1364)" d="m0 0 3 2-4 1-1 5-5 1-3-4 6-3z" fill="#060505"/>
<path transform="translate(1136,694)" d="m0 0h3l-2 4-5 7-3-3 1-2h2l2-4z" fill="#252225"/>
<path transform="translate(1376,1263)" d="m0 0 2 1-2 4-10 8v-3l6-7h3z" fill="#040303"/>
<path transform="translate(1127,704)" d="m0 0 4 1v2h-2l-2 4-5 5-1-3z" fill="#262326"/>
<path transform="translate(1375,1262)" d="m0 0 2 1-2 4-6 2-1 3-5 2 2-4z" fill="#181618"/>
<path transform="translate(550,1132)" d="m0 0 5 2-1 3 3 4-1 3-4-4-2-4z" fill="#0D0C0D"/>
<path transform="translate(489,974)" d="m0 0h3l-1 7h2l1 8-1 4-4-15z" fill="#262326"/>
<path transform="translate(1070,904)" d="m0 0 7 6 7 9h-3l-9-11z" fill="#262326"/>
<path transform="translate(982,814)" d="m0 0 2 4-4 2v2l-7 2 6-7z" fill="#242224"/>
<path transform="translate(701,423)" d="m0 0 1 2 3-1v3l-4 3-4-1 1-4z" fill="#070606"/>
<path transform="translate(675,440)" d="m0 0 2 2-7 6-3-2 3-3 4-2z" fill="#262326"/>
<path transform="translate(1398,1241)" d="m0 0 1 4-6 4-5 4 2-4z" fill="#171517"/>
<path transform="translate(1460,553)" d="m0 0h2l6 10h-3l-5-7z" fill="#110F10"/>
</svg>
